<?xml version="1.0" encoding="iso-8859-1"?>
<!-- Generator: Adobe Illustrator 18.0.0, SVG Export Plug-In . SVG Version: 6.00 Build 0)  -->
<!DOCTYPE svg PUBLIC "-//W3C//DTD SVG 1.1//EN" "http://www.w3.org/Graphics/SVG/1.1/DTD/svg11.dtd">
<svg version="1.1" id="Capa_1" xmlns="http://www.w3.org/2000/svg" xmlns:xlink="http://www.w3.org/1999/xlink" x="0px" y="0px"
	 viewBox="0 0 297 297" style="enable-background:new 0 0 297 297;" xml:space="preserve">
<g>
	<path d="M197.667,81.699c1.828,0,3.625-0.745,4.917-2.036c1.291-1.292,2.036-3.09,2.036-4.917s-0.745-3.626-2.036-4.917
		c-1.292-1.291-3.08-2.036-4.917-2.036c-1.828,0-3.616,0.745-4.917,2.036c-1.291,1.291-2.036,3.09-2.036,4.917
		s0.745,3.625,2.036,4.917C194.05,80.954,195.839,81.699,197.667,81.699z"/>
	<path d="M99.328,81.699c1.828,0,3.625-0.745,4.917-2.036c1.301-1.292,2.036-3.09,2.036-4.917s-0.735-3.626-2.036-4.917
		c-1.292-1.291-3.08-2.036-4.917-2.036c-1.828,0-3.616,0.745-4.917,2.036c-1.291,1.291-2.036,3.09-2.036,4.917
		s0.745,3.625,2.036,4.917C95.711,80.954,97.5,81.699,99.328,81.699z"/>
	<path d="M197.667,147.258c1.837,0,3.625-0.745,4.917-2.036c1.301-1.292,2.036-3.09,2.036-4.917s-0.735-3.626-2.036-4.917
		c-1.292-1.291-3.08-2.036-4.917-2.036c-1.828,0-3.616,0.745-4.917,2.036c-1.291,1.291-2.036,3.09-2.036,4.917
		s0.745,3.625,2.036,4.917C194.05,146.513,195.839,147.258,197.667,147.258z"/>
	<path d="M99.328,147.258c1.837,0,3.625-0.745,4.917-2.036c1.301-1.292,2.036-3.09,2.036-4.917s-0.735-3.626-2.036-4.917
		c-1.292-1.291-3.08-2.036-4.917-2.036c-1.828,0-3.616,0.745-4.917,2.036c-1.291,1.291-2.036,3.09-2.036,4.917
		s0.745,3.625,2.036,4.917C95.711,146.513,97.5,147.258,99.328,147.258z"/>
	<path d="M148.497,114.479c1.828,0,3.625-0.745,4.917-2.036c1.301-1.302,2.036-3.09,2.036-4.917s-0.735-3.626-2.036-4.917
		c-1.292-1.291-3.08-2.036-4.917-2.036c-1.828,0-3.616,0.745-4.917,2.036c-1.291,1.291-2.036,3.09-2.036,4.917
		s0.745,3.615,2.036,4.917C144.881,113.734,146.67,114.479,148.497,114.479z"/>
	<path d="M290.808,107.545c-4.531-5.006-11.002-7.878-17.755-7.878h-11.322l4.126-49.513c0.604-7.258-1.878-14.494-6.81-19.854
		c-4.931-5.359-11.936-8.433-19.218-8.433H57.17c-7.282,0-14.288,3.074-19.218,8.433c-4.932,5.359-7.414,12.596-6.81,19.854
		l4.126,49.513H23.946c-6.752,0-13.224,2.871-17.755,7.878c-4.532,5.006-6.746,11.732-6.073,18.452l12.757,127.572
		c1.23,12.292,11.474,21.563,23.828,21.563h34.073c6.752,0,13.225-2.872,17.756-7.879c4.531-5.007,6.744-11.733,6.072-18.451
		l-0.479-4.79h108.751l-0.479,4.789c-0.672,6.719,1.54,13.445,6.071,18.452c4.531,5.006,11.003,7.879,17.756,7.879h34.073
		c12.354,0,22.598-9.271,23.828-21.564l12.757-127.572C297.554,119.276,295.34,112.551,290.808,107.545z M50.941,48.505
		c-0.199-2.379,0.936-3.999,1.63-4.752s2.214-2.019,4.6-2.019H239.83c2.386,0,3.906,1.265,4.6,2.019
		c0.694,0.754,1.829,2.374,1.63,4.752l-4.264,51.162h-2.815c-12.355,0-22.599,9.271-23.827,21.564l-4.068,40.676H85.914
		l-4.068-40.675c-1.228-12.294-11.472-21.565-23.827-21.565h-2.815L50.941,48.505z M64.671,224.146c-1.598,0-2.898-1.3-2.898-2.898
		V184.67c0-1.598,1.3-2.897,2.898-2.897h167.658c1.598,0,2.898,1.299,2.898,2.897v36.578c0,1.598-1.3,2.898-2.898,2.898H64.671z
		 M74.836,250.78c0.157,1.567-0.581,2.641-1.035,3.143c-0.453,0.502-1.449,1.343-3.025,1.343H36.704
		c-2.105,0-3.851-1.58-4.061-3.675l-12.757-127.57c-0.156-1.569,0.581-2.643,1.035-3.145c0.454-0.502,1.45-1.343,3.026-1.343h34.073
		c2.105,0,3.85,1.579,4.06,3.675l3.87,38.699h-1.278c-12.552,0-22.764,10.212-22.764,22.763v36.578
		c0,12.552,10.212,22.764,22.764,22.764h9.488L74.836,250.78z M277.114,124.02l-12.757,127.57c-0.21,2.095-1.956,3.675-4.061,3.675
		h-34.073c-1.575,0-2.572-0.841-3.025-1.343c-0.454-0.502-1.192-1.576-1.035-3.144l0.677-6.767h9.488
		c12.552,0,22.764-10.212,22.764-22.764V184.67c0-12.551-10.212-22.763-22.764-22.763h-1.278l3.87-38.7
		c0.21-2.094,1.955-3.674,4.06-3.674h34.073c1.575,0,2.572,0.841,3.026,1.343C276.533,121.378,277.27,122.452,277.114,124.02z"/>
</g>
<g>
</g>
<g>
</g>
<g>
</g>
<g>
</g>
<g>
</g>
<g>
</g>
<g>
</g>
<g>
</g>
<g>
</g>
<g>
</g>
<g>
</g>
<g>
</g>
<g>
</g>
<g>
</g>
<g>
</g>
</svg>
