<?xml version="1.0" encoding="iso-8859-1"?>
<!-- Generator: Adobe Illustrator 18.0.0, SVG Export Plug-In . SVG Version: 6.00 Build 0)  -->
<!DOCTYPE svg PUBLIC "-//W3C//DTD SVG 1.1//EN" "http://www.w3.org/Graphics/SVG/1.1/DTD/svg11.dtd">
<svg version="1.1" id="Capa_1" xmlns="http://www.w3.org/2000/svg" xmlns:xlink="http://www.w3.org/1999/xlink" x="0px" y="0px"
	 viewBox="0 0 297 297" style="enable-background:new 0 0 297 297;" xml:space="preserve">
<g>
	<path d="M277.661,102.053c-21.251-8.033-87.314-32.028-87.314-32.028c-15.453-5.668-32.455-0.209-41.847,12.714
		c-9.392-12.921-26.394-18.377-41.847-12.715c0,0-64.97,23.914-87.314,32.029C8.798,105.882,0,113.921,0,125.549v79.712
		c0,13.203,10.741,23.944,23.944,23.944H125.4c1.955,0,3.865-0.578,5.491-1.663l17.608-11.739l17.608,11.739
		c1.626,1.085,3.537,1.663,5.491,1.663h101.457c13.203,0,23.944-10.741,23.944-23.944v-79.712
		C297,113.921,288.152,106.019,277.661,102.053z M183.533,88.615l35.439,12.989h-58.331l2.434-4.868
		C166.839,89.211,175.637,85.719,183.533,88.615z M113.467,88.614c7.902-2.896,16.695,0.597,20.457,8.121l2.434,4.869H78.026
		L113.467,88.614z M277.2,205.261c0,2.285-1.859,4.144-4.144,4.144h-98.459l-20.606-13.737c-3.326-2.218-7.657-2.218-10.983,0
		l-20.606,13.737H23.944c-2.285,0-4.144-1.859-4.144-4.144v-79.712c0-2.286,1.859-4.145,4.144-4.145h249.113
		c2.285,0,4.144,1.859,4.144,4.145V205.261z"/>
	<path d="M117.7,132.405h-77c-5.467,0-9.9,4.433-9.9,9.9v46.2c0,5.467,4.433,9.9,9.9,9.9h77c5.467,0,9.9-4.433,9.9-9.9v-46.2
		C127.6,136.837,123.167,132.405,117.7,132.405z M107.8,178.605H50.6v-26.4h57.2V178.605z"/>
	<path d="M256.3,132.405h-77c-5.467,0-9.9,4.433-9.9,9.9v46.2c0,5.467,4.433,9.9,9.9,9.9h77c5.467,0,9.9-4.433,9.9-9.9v-46.2
		C266.2,136.837,261.767,132.405,256.3,132.405z M246.4,178.605h-57.2v-26.4h57.2V178.605z"/>
</g>
<g>
</g>
<g>
</g>
<g>
</g>
<g>
</g>
<g>
</g>
<g>
</g>
<g>
</g>
<g>
</g>
<g>
</g>
<g>
</g>
<g>
</g>
<g>
</g>
<g>
</g>
<g>
</g>
<g>
</g>
</svg>
